<?xml version="1.0" encoding="UTF-8"?>
<svg xmlns="http://www.w3.org/2000/svg" viewBox="0 0 300 300" width="300" height="300" role="img" aria-label="BLACK-HIVE emblem">
  <title>BLACK-HIVE Emblem</title>
  <!-- Palette: pink #ff4d73, navy #142233 -->
  <defs>
    <style>
      .pink{stroke:#ff4d73; fill:none}
      .navy{fill:#142233}
      .txt{fill:#ff4d73; font:700 34px/1 system-ui, -apple-system, Segoe UI, Roboto, Arial, sans-serif; letter-spacing:1px}
    </style>
  </defs>

  <!-- outer ring -->
  <circle cx="150" cy="150" r="120" class="pink" stroke-width="12"/>
  <!-- small gaps to resemble the reference -->
  <path d="M150 30 a120 120 0 0 1 95 50" stroke="#000" stroke-width="14" fill="none" stroke-linecap="round"/>
  <path d="M55 200 a120 120 0 0 1 -10 -30" stroke="#000" stroke-width="14" fill="none" stroke-linecap="round"/>

  <!-- drone -->
  <g class="navy">
    <path d="M150 110 l-22 8 v14 l22 8 l22-8 v-14z"/>
    <path d="M128 132 l-10 18 10 6 22-8 v-14z"/>
    <path d="M172 132 l10 18 -10 6 -22-8 v-14z"/>
    <path d="M118 150 l-38 -10 -30 -16 8 -8 34 10 38 10z"/>
    <path d="M182 150 l38 -10 30 -16 -8 -8 -34 10 -38 10z"/>
    <path d="M70 124 l36 10 -6 10 -44 -14z"/>
    <path d="M230 124 l-36 10 6 10 44 -14z"/>
    <path d="M150 156 l-22 8 12 32h-12l-10 22h20l12-28 12 28h20l-10-22h-12l12-32z"/>
    <circle cx="150" cy="214" r="26"/>
  </g>

  <!-- target inside camera pod -->
  <circle cx="150" cy="214" r="18" fill="none" stroke="#ff4d73" stroke-width="8"/>
  <circle cx="150" cy="214" r="6" fill="#ff4d73"/>

  <!-- B / 25 text -->
  <text x="150" y="76" text-anchor="middle" class="navy" style="fill:#142233;font:900 38px/1 system-ui,-apple-system,Segoe UI,Roboto,Arial">B</text>
  <text x="96"  y="212" class="txt" text-anchor="middle">25</text>
  <text x="204" y="212" class="txt" text-anchor="middle">25</text>
</svg>
